<svg xmlns="http://www.w3.org/2000/svg" width="24" height="24" viewBox="0 0 24 24" fill="white" transform="scale(1.7)">
<path d="M12 21C17.2467 21 21.5 16.7467 21.5 11.5C21.5 6.25329 17.2467 2 12 2C6.75329 2 2.5 6.25329 2.5 11.5C2.5 16.7467 6.75329 21 12 21Z" fill="#39a9e0">
</path>
<path opacity="0.5" d="M10 16L12.5 14L10 13">
</path>
<path d="M10 13L14.2258 15.4509C14.6544 15.6873 14.9637 15.5649 15.0705 15.053L16.5993 7.84887C16.7558 7.22136 16.36 6.93674 15.95 7.12288L6.97318 10.5843C6.36042 10.8301 6.36399 11.172 6.86148 11.3243L9.16515 12.0433L14.4984 8.67862C14.7502 8.52594 14.9812 8.60802 14.7916 8.77634" stroke="white">
</path>
</svg>
