<svg xmlns="http://www.w3.org/2000/svg" width="24" height="24" viewBox="0 0 24 24" fill="white" stroke="white" stroke-width="0.3">
<path d="M12.4198 9.15828C12.427 9.02581 12.5402 8.92423 12.6727 8.93139C13.1741 8.95849 13.5885 9.11009 13.883 9.41605C14.1761 9.7206 14.3188 10.1453 14.3456 10.6545C14.3526 10.787 14.2509 10.9001 14.1184 10.9071C13.9859 10.914 13.8728 10.8123 13.8659 10.6798C13.8428 10.2416 13.7237 9.9433 13.5369 9.74921C13.3514 9.55652 13.0677 9.43387 12.6467 9.41111C12.5142 9.40395 12.4127 9.29075 12.4198 9.15828Z" fill="white"></path>
<path d="M12.3544 7.63537C12.2222 7.62493 12.1065 7.72368 12.096 7.85593C12.0856 7.98819 12.1843 8.10386 12.3166 8.1143C13.217 8.18539 13.9031 8.48995 14.4021 9.03425C14.8805 9.55821 15.1355 10.2442 15.1122 11.0593C15.1084 11.1919 15.2128 11.3025 15.3454 11.3063C15.478 11.31 15.5886 11.2056 15.5924 11.073C15.619 10.1429 15.3255 9.33306 14.7568 8.71015C14.1588 8.05783 13.3488 7.71387 12.3544 7.63537Z" fill="white"></path>
<path d="M11.6216 6.65321C11.6216 6.52055 11.7292 6.413 11.8618 6.413C13.2672 6.413 14.4503 6.8838 15.3951 7.80238C16.3468 8.72766 16.8391 9.99059 16.8391 11.5648C16.8391 11.6975 16.7316 11.805 16.5989 11.805C16.4663 11.805 16.3587 11.6975 16.3587 11.5648C16.3587 10.0974 15.9036 8.96681 15.0602 8.14684C14.2099 7.32018 13.1491 6.89342 11.8618 6.89342C11.7292 6.89342 11.6216 6.78588 11.6216 6.65321Z" fill="white"></path>
<path d="M13.233 13.6838C13.0585 13.9082 12.7095 13.8833 12.7095 13.8833C10.2413 13.235 9.61798 10.7669 9.61798 10.7669C9.61798 10.7669 9.59306 10.4178 9.81744 10.2433L10.2662 9.89427C10.4656 9.71975 10.6152 9.29592 10.3908 8.89702C10.3352 8.81349 10.2656 8.70577 10.1913 8.59058C10.066 8.39637 9.92698 8.18093 9.81744 8.02443C9.61799 7.75019 9.16922 7.2017 9.16922 7.2017C8.94484 6.92746 8.62074 6.87759 8.2717 7.05211C7.9476 7.25156 7.64842 7.50087 7.37418 7.80005C7.1498 8.04936 7.02514 8.29867 7.00021 8.54798V8.64771C7.00021 8.77235 7.02514 8.87207 7.05007 8.97178C7.14979 9.37068 7.42404 9.99399 7.99746 11.0411C8.37142 11.7142 8.77032 12.2877 9.14429 12.7614C9.34374 13.0107 9.56813 13.26 9.84237 13.5342L9.94209 13.6339C10.1914 13.9082 10.4656 14.1326 10.715 14.332C11.1887 14.706 11.7621 15.1049 12.4352 15.4788C13.5072 16.0523 14.1305 16.3265 14.5045 16.4262C14.6042 16.4512 14.7289 16.4761 14.8286 16.4761H14.9283C15.1776 16.4262 15.4269 16.3265 15.6763 16.1021C16.0004 15.8279 16.2497 15.5287 16.4242 15.2046C16.5987 14.8556 16.5488 14.5315 16.2746 14.3071C16.2746 14.3071 15.7261 13.8583 15.4519 13.6589C15.2026 13.4594 14.8037 13.2101 14.5793 13.0855C14.1555 12.8611 13.7566 13.0107 13.582 13.235L13.233 13.6838Z" fill="white"></path>
<path fill-rule="evenodd" clip-rule="evenodd" d="M18.9922 4.85816C18.5185 4.43433 16.6237 3.03819 12.3605 3.01326C12.3605 3.01326 7.34931 2.71408 4.90606 4.95789C3.53484 6.3291 3.06115 8.29867 3.01129 10.7669C2.96142 13.235 2.88664 17.8473 7.34931 19.1188V21.0385C7.34931 21.0385 7.32438 21.8114 7.823 21.9609C8.32958 22.123 8.655 21.7581 9.08035 21.2812C9.17834 21.1713 9.28163 21.0555 9.39366 20.9388C9.71777 20.5897 10.1665 20.0911 10.4906 19.6922C13.5322 19.9415 15.8758 19.3681 16.15 19.2684C16.2047 19.2509 16.2814 19.2314 16.376 19.2074C17.3596 18.958 20.2891 18.2151 20.8121 14.0079C21.4105 9.22112 20.5628 6.20445 18.9922 4.85816ZM19.5157 13.6339C19.0839 17.1564 16.7049 17.6752 15.8908 17.8527C15.8118 17.8699 15.7476 17.8839 15.7013 17.8972C15.4769 17.9719 13.4325 18.4706 10.8397 18.321C10.8397 18.321 8.91997 20.6396 8.29669 21.2629C8.19697 21.3626 8.09724 21.3875 8.02245 21.3875C7.92273 21.3626 7.89779 21.2379 7.89779 21.0634C7.89779 20.8141 7.92273 17.8722 7.92273 17.8722C4.29992 16.7844 4.36322 13.293 4.40176 11.1672C4.40396 11.0457 4.40608 10.9286 4.40743 10.8167C4.4573 8.74742 4.83127 7.07703 5.9781 5.9302C8.04739 4.06036 12.3106 4.33461 12.3106 4.33461C15.9007 4.35954 17.6209 5.43158 18.0198 5.80554C19.3163 6.95238 19.9894 9.66988 19.5157 13.6339Z" fill="white"></path>
</svg>
