<?xml version="1.0" encoding="utf-8"?>
<!-- Generator: Adobe Illustrator 22.1.0, SVG Export Plug-In . SVG Version: 6.00 Build 0)  -->
<svg version="1.1" id="Слой_1" xmlns="http://www.w3.org/2000/svg" xmlns:xlink="http://www.w3.org/1999/xlink" x="0px" y="0px"
     viewBox="0 0 512 512" style="enable-background:new 0 0 512 512;" transform="scale(0.5)" xml:space="preserve">
<style type="text/css">
    .st0{fill:#ffffff;}
</style>
<g>
    <g>
        <g>
            <g>
                <path class="st0" d="M473.8,2.1c-6.2,0.7-14.9,2.1-19.7,2.8c-4.8,0.7-9,1.4-9,1.7c-0.3,0.3-1,2.8-2.1,5.2
                    c-2.1,6.2-6.2,14.5-9.7,19.7c-9.7,14.5-28.8,30.2-48.5,40.2l-6.9,3.5v23.3c0,12.8,0.3,23.2,0.3,23.2c0.7,0,10.7-5.5,19.4-10.4
                    c9.3-5.5,23.9-15.9,31.2-22.1l4.8-4.2l0.3,93.3l0.3,93.3l5.5,0.3c3.1,0.3,13.5,1,22.8,1.7c9.7,0.7,20.8,1.7,24.9,2.1l7.6,0.7
                    l8.3-5.5l8.3-5.5V140.1V14.5l-7.3-7.3L497.3,0v130.6c0,115.4,0,130.6-1,132.4c-1.7,3.5-7.3,3.5-9,0c-1-1.7-1-17-1-132.4
                    c0-104-0.3-130.3-0.7-130.3C485.3,0.3,480,1,473.8,2.1z"/>
                <path class="st0" d="M417.3,111.6c-7.6,5.2-17.3,11.1-26.6,15.9c-6.2,3.1-8.7,4.8-7.6,4.8c2.4,0.7,19,1.7,20.4,1.4
                    c1-0.3,5.5-2.4,10.4-4.5l8.7-4.2v-8.7c0-4.5-0.3-8.7-0.7-8.7C422.2,108.5,419.7,109.9,417.3,111.6z"/>
            </g>
            <g>
                <path class="st0" d="M247,48.2c-0.4,0.4-31.3,89.5-68.8,198.2c-42.2,122.6-68.8,198.7-70,199.8c-1.1,1.1-2.6,1.9-3.8,1.9
                    c-2.6,0-5.3-2.6-5.3-5.3c0-1.1,30.5-89.9,67.7-197.5s67.3-195.6,67.3-195.6s-10.1,4.1-21.8,9.8c-19.2,9-21.8,10.5-22.9,12.8
                    C184.5,83.6,54,433.4,54,435.3s2.3,3,21.4,11.6l21.8,9.8l47.8-6c37.7-4.9,48.2-6.4,48.9-7.5c0.8-0.8,6-18.8,12.4-40.3
                    c6.4-21.4,11.6-39.2,12-39.5c0.4-0.4,26.3-2.3,57.6-3.8c31.3-1.5,60.6-3,65.4-3.4c7.5-0.4,9-0.4,10.5,1.1
                    c1.5,1.1,4.1,7.9,10.1,28.5l8.3,27l-1.9,2.3c-2.3,3-5.6,3.4-7.9,1.1c-0.8-1.1-4.9-12.4-9-25.2s-7.5-23.7-7.5-23.7
                    c-0.8-0.8-25.9,1.1-25.9,1.5c0,2.6,12,48.2,13.1,48.9c0.4,0.4,8.6,2.6,18,4.1l16.5,3.4l33.1-3.8c18-2.3,33.9-4.1,35-4.5
                    c1.9-0.8,2.3-1.1,1.5-4.1c-0.8-5.3-106.5-348.4-107.6-349.5c-0.8-0.4-18-4.1-39.2-8.3c-20.7-3.8-38.8-7.5-39.9-7.5
                    C248.1,47.5,247,47.8,247,48.2z M288.8,138.9c1.1,2.6,44.4,142.5,45.9,148.9c0.8,3,0.4,3.8-1.5,5.3l-2.3,2.3H282h-48.9l-2.3-2.3
                    c-1.1-1.1-2.3-2.6-2.3-3c0-1.9,49.3-151.3,50.4-152.4C282.4,134.7,286.9,135.2,288.8,138.9z"/>
                <path class="st0" d="M277.5,178.4l-6,17.7l12.4,44l12,44l13.1,0.4c11.6,0,12.8,0,12.4-1.1c-0.4-0.8-8.6-28.2-18.8-61.3
                    c-10.1-33.1-18.4-60.2-18.8-60.6C283.5,161.1,280.5,168.6,277.5,178.4z"/>
            </g>
        </g>
    </g>
</g>
</svg>
