<?xml version="1.0" standalone="no"?>
<!DOCTYPE svg PUBLIC "-//W3C//DTD SVG 20010904//EN"
 "http://www.w3.org/TR/2001/REC-SVG-20010904/DTD/svg10.dtd">
<svg version="1.0" xmlns="http://www.w3.org/2000/svg"
     width="64.000000pt" height="64.000000pt"
     viewBox="0 0 64.000000 64.000000"
     preserveAspectRatio="xMidYMid meet">
<g transform="translate(0.000000,64.000000) scale(0.100000,-0.100000)">
<path d="M120 435 l-115 -115 115 -115 114 -115 33 32 33 32 -82 83 -82 83 49
50 49 50 83 -82 83 -83 32 33 33 32 -115 115 -115 115 -115 -115z"
        fill="#000000"
        stroke-width="10"
        stroke="#ffffff"
/>
<path d="M372 518 l-32 -33 82 -82 83 -83 -53 -52 -52 -53 -83 83 -83 82 -29
-30 -29 -31 114 -114 115 -115 115 115 115 115 -115 115 -115 115 -33 -32z"
        fill="#ff0000"
        stroke-width="10"
        stroke="#ffffff"
/>
</g>
</svg>
