<?xml version="1.0" standalone="no"?>
<!DOCTYPE svg PUBLIC "-//W3C//DTD SVG 20010904//EN"
 "http://www.w3.org/TR/2001/REC-SVG-20010904/DTD/svg10.dtd">
<svg version="1.0" xmlns="http://www.w3.org/2000/svg"
 width="1912.000000pt" height="1912.000000pt" viewBox="0 0 1912.000000 1912.000000"
 preserveAspectRatio="xMidYMid meet">
<g transform="translate(0.000000,1912.000000) scale(0.100000,-0.100000)">
<path d="M3550 13095 l-3535 -3535 3535 -3535 3535 -3535 1060 1060 1060 1060
-2475 2475 -2475 2475 1415 1415 1415 1415 2475 -2475 2475 -2475 1060 1060
1060 1060 -3535 3535 -3535 3535 -3535 -3535z"
        fill="#000000"
        stroke-width="250"
        stroke="#ffffff"
/>
<path d="M10975 15570 l-1060 -1060 2475 -2475 2475 -2475 -1415 -1415 -1415
-1415 -2475 2475 -2475 2475 -1060 -1060 -1060 -1060 3535 -3535 3535 -3535
3535 3535 3535 3535 -3535 3535 -3535 3535 -1060 -1060z"
        fill="#ff0000"
        stroke-width="250"
        stroke="#ffffff"
/>
</g>
</svg>
